<?xml version="1.0" encoding="utf-8"?>
<!-- Svg Vector Icons : http://www.onlinewebfonts.com/icon -->
<!DOCTYPE svg PUBLIC "-//W3C//DTD SVG 1.1//EN" "http://www.w3.org/Graphics/SVG/1.1/DTD/svg11.dtd">
<svg version="1.1" xmlns="http://www.w3.org/2000/svg" xmlns:xlink="http://www.w3.org/1999/xlink" x="0px" y="0px" viewBox="0 0 1000 1000" enable-background="new 0 0 1000 1000" xml:space="preserve">
<metadata> Svg Vector Icons : http://www.onlinewebfonts.com/icon </metadata>
<g><g><path d="M924.3,254C880.5,179,821,119.5,746,75.7C670.9,31.9,588.9,10,500,10c-88.9,0-170.9,21.9-246,65.7C179,119.5,119.5,179,75.7,254C31.9,329.1,10,411.1,10,500c0,88.9,21.9,170.9,65.7,246C119.5,821,179,880.5,254,924.3c75.1,43.8,157.1,65.7,246,65.7s170.9-21.9,246-65.7C821,880.5,880.5,821,924.3,746c43.8-75.1,65.7-157.1,65.7-246C990,411.1,968.1,329.1,924.3,254z M731,615.5c8.1,8.1,12.1,17.7,12.1,28.7c0,11.5-4,21.3-12.1,29.3L673.6,731c-8.1,8.1-17.9,12.1-29.4,12.1c-11.1,0-20.6-4-28.7-12.1L500,615.5L384.5,731c-8.1,8.1-17.6,12.1-28.7,12.1c-11.5,0-21.3-4-29.4-12.1L269,673.5c-8.1-8.1-12.1-17.9-12.1-29.3c0-11.1,4-20.6,12.1-28.7L384.5,500L269,384.5c-8.1-8.1-12.1-17.6-12.1-28.7c0-11.5,4-21.3,12.1-29.4l57.4-57.4c8.1-8.1,17.9-12.1,29.4-12.1c11.1,0,20.6,4,28.7,12.1L500,384.5L615.5,269c8.1-8.1,17.6-12.1,28.7-12.1c11.5,0,21.3,4,29.4,12.1l57.4,57.4c8.1,8.1,12.1,17.9,12.1,29.4c0,11.1-4,20.6-12.1,28.7L615.5,500L731,615.5z"/></g><g></g><g></g><g></g><g></g><g></g><g></g><g></g><g></g><g></g><g></g><g></g><g></g><g></g><g></g><g></g></g>
</svg>