<svg width="15px" height="15px" viewBox="0 0 34.00 34.00" fill="#000000"><g id="SVGRepo_bgCarrier" stroke-width="0"></g><g id="SVGRepo_tracerCarrier" stroke-linecap="round" stroke-linejoin="round" stroke="#CCCCCC" stroke-width="0.8160000000000001"></g><g id="SVGRepo_iconCarrier"> <title>crown</title> <desc>Created with Sketch.</desc> <g id="icons" stroke="none" stroke-width="1" fill="none" fill-rule="evenodd"> <g id="ui-gambling-website-lined-icnos-casinoshunter" transform="translate(-1513.000000, -549.000000)" fill="#ffffff" fill-rule="nonzero"> <g id="1" transform="translate(1350.000000, 120.000000)"> <path d="M180.916506,429.219311 C181.338895,429.433615 181.671927,429.790192 181.852568,430.227002 L185.648185,439.405177 L193.444286,429.905749 C194.138443,429.059929 195.397685,428.928221 196.256882,429.61157 C196.726862,429.98536 197,430.548271 197,431.143061 L197,448.04671 C197,449.677767 195.656854,451 194,451 L166,451 C164.343146,451 163,449.677767 163,448.04671 L163,431.142612 C163,430.055241 163.895431,429.173752 165,429.173752 C165.604127,429.173752 166.175881,429.442575 166.555587,429.905145 L174.353772,439.405143 L178.147704,430.227264 C178.54422,429.268054 179.621513,428.783179 180.607005,429.093228 L180.754044,429.145737 L180.916506,429.219311 Z" id="crown"> </path> </g> </g> </g> </g></svg>
